<svg width="64" height="32" viewBox="0 0 64 32" fill="none" xmlns="http://www.w3.org/2000/svg">
<path d="M14.9159 0L24.4365 26.5677L19.2013 28.503L18.2246 25.7777C17.8743 27.229 17.3026 28.401 16.5096 29.2937C15.7165 30.1864 14.5892 30.903 13.1276 31.4433C10.721 32.3329 8.36046 32.1563 6.04585 30.9135C3.73954 29.654 2.06464 27.5683 1.02116 24.6564C-0.181856 21.2994 -0.321929 18.3601 0.600943 15.8387C1.53641 13.3127 3.35863 11.5489 6.06758 10.5475C7.31496 10.0864 8.51861 9.94122 9.67851 10.112C10.8341 10.2707 11.8803 10.7016 12.8171 11.4045L9.45384 2.01917L14.9159 0ZM6.44185 22.2233C7.09294 24.0402 7.99052 25.3504 9.13458 26.1538C10.2703 26.974 11.6005 27.1023 13.1251 26.5387C14.6497 25.9751 15.6148 25.0051 16.0205 23.6287C16.4263 22.2524 16.3208 20.7039 15.7042 18.9832C14.8418 16.5767 13.5889 15.0913 11.9455 14.5269C10.9401 14.19 9.92084 14.2126 8.88766 14.5945C7.31268 15.1767 6.35831 16.1768 6.02456 17.5947C5.69909 18.9959 5.83818 20.5388 6.44185 22.2233Z" fill="black"/>
<path d="M49.0841 0L39.5635 26.5677L44.7987 28.503L45.7753 25.7777C46.1257 27.229 46.6974 28.401 47.4904 29.2937C48.2835 30.1864 49.4108 30.903 50.8724 31.4433C53.279 32.3329 55.6395 32.1563 57.9541 30.9135C60.2605 29.654 61.9354 27.5683 62.9788 24.6564C64.1819 21.2994 64.3219 18.3601 63.3991 15.8387C62.4636 13.3127 60.6414 11.5489 57.9324 10.5475C56.685 10.0864 55.4814 9.94122 54.3215 10.112C53.1659 10.2707 52.1197 10.7016 51.1829 11.4045L54.5462 2.01917L49.0841 0ZM57.5581 22.2233C56.9071 24.0402 56.0095 25.3504 54.8654 26.1538C53.7297 26.974 52.3995 27.1023 50.8749 26.5387C49.3503 25.9751 48.3852 25.0051 47.9795 23.6287C47.5737 22.2524 47.6792 20.7039 48.2958 18.9832C49.1582 16.5767 50.4111 15.0913 52.0545 14.5269C53.0599 14.19 54.0792 14.2126 55.1123 14.5945C56.6873 15.1767 57.6417 16.1768 57.9754 17.5947C58.3009 18.9959 58.1618 20.5388 57.5581 22.2233Z" fill="black"/>
<path d="M21.5439 7.23144H27.8435L32.3123 23.2335L36.8795 7.23144H42.9035L35.1668 28.9258H29.2412L21.5439 7.23144Z" fill="black"/>
</svg>
